# xmcd
#
# Track frame offsets: 
#        150
#        15353
#        28136
#        44217
#        59117
#        76983
#        94864
#        108156
#        124462
#        139039
#        156009
#        169405
#
# Disc length: 2513 seconds
#
# Revision: 1
# Processed by: cddbd v1.5.2PL0 Copyright (c) Steve Scherf et al.
# Submitted via: ExactAudioCopy v0.99pb5
#
DISCID=a609cf0c
DTITLE=Steff Nevers - Closest To My Heart
DYEAR=1900
DGENRE=Country
TTITLE0=One Beer A Day
TTITLE1=Alphabet Song
TTITLE2=Closest To My Heart
TTITLE3=Party At The Farm
TTITLE4=He's Not Here Saloon
TTITLE5=Stay For A While
TTITLE6=Keep It Up
TTITLE7=Whittle Away
TTITLE8=Higher Ground
TTITLE9=Merle Made Me Do It
TTITLE10=Redneck Rehab
TTITLE11=Let It Rain
EXTD=
EXTT0=
EXTT1=
EXTT2=
EXTT3=
EXTT4=
EXTT5=
EXTT6=
EXTT7=
EXTT8=
EXTT9=
EXTT10=
EXTT11=
PLAYORDER=
